# xmcd
#
# Track frame offsets:
#	150
#	27304
#	67666
#	117820
#	157237
#	185043
#	217667
#	245755
#	279320
#
# Disc length: 4016
#
# Revision: 1
# Processed by: cddbd v1.5.1PL0 Copyright (c) Steve Scherf et al.
# Submitted via: Audion 3.0.2 (http://www.panic.com/audion/)
# Normalized: r0:TRMNUM
#
DISCID=7a0fae09
DTITLE=fisternni - 055 you right
DYEAR=1900
DGENRE=
TTITLE0=124/tempura
TTITLE1=sputnik
TTITLE2=sputnik remix
TTITLE3=127/tempura_remix
TTITLE4=clik dnz
TTITLE5=pawnsong
TTITLE6=indust
TTITLE7=110-noise-click
TTITLE8=rose
EXTD=
EXTT0=
EXTT1=
EXTT2=
EXTT3=
EXTT4=
EXTT5=
EXTT6=
EXTT7=
EXTT8=
PLAYORDER=
